<svg xmlns="http://www.w3.org/2000/svg" viewBox="0 0 149.28 194.15"><defs><style>.cls-1{fill:#d1d3d2;}</style></defs><g id="Layer_2" data-name="Layer 2"><g id="Front"><path class="cls-1" d="M143.3,101.53s4.45-38.14-4.11-60.34C132.5,23.83,111.81,0,74.58,0H74.5C37.28,0,16.59,23.83,9.9,41.19c-8.56,22.2-4.08,60.05-4.08,60.05a3.31,3.31,0,0,0-4.53.39c-4.57,4.69,4.4,23.73,5.56,27.31s-.47,17.69,7.6,18.28c2.83,10,18.13,30.14,19.22,33.53.76,2.37,23.1,13.87,43.59,13.39s39.08-10.5,41.21-15.29c1.11-2.49,13.69-22.9,16.17-31.63,8.06-.59,6.44-14.69,7.6-18.28s9.76-23.67,6.17-27.52C146,98.8,143.3,101.53,143.3,101.53Z"/></g></g></svg>